<svg xmlns="http://www.w3.org/2000/svg"
 width="32px" height="32px" viewBox="0 0 512.000000 512.000000"
 preserveAspectRatio="xMidYMid meet">

<g transform="translate(0.000000,512.000000) scale(0.100000,-0.100000)"
fill="#000000" stroke="none">
<path d="M0 2560 l0 -2560 310 0 310 0 0 990 0 990 -175 0 -175 0 0 405 0 405
175 0 175 0 0 328 c0 335 9 468 36 576 23 92 124 292 181 357 81 93 232 196
363 247 134 52 158 55 603 59 l417 5 0 -366 0 -365 -282 -3 c-273 -3 -285 -4
-336 -27 -30 -14 -69 -43 -92 -68 -67 -76 -70 -97 -70 -440 l0 -303 380 0 380
0 0 -27 c0 -25 -81 -653 -96 -745 l-6 -38 -329 0 -329 0 0 -990 0 -990 545 0
545 0 0 1215 0 1215 380 0 379 0 3 -131 3 -130 60 47 c158 123 327 217 455
251 92 25 367 25 460 0 231 -62 404 -236 479 -481 50 -161 51 -192 51 -1118
l0 -868 160 0 160 0 0 2560 0 2560 -2560 0 -2560 0 0 -2560z"/>
<path d="M3550 1845 c-62 -18 -187 -75 -231 -106 l-29 -20 0 -860 0 -859 376
0 376 0 -5 752 c-4 645 -7 765 -21 836 -39 196 -113 261 -310 268 -70 3 -118
-1 -156 -11z"/>
</g>
</svg>
